<svg width="18" height="18" viewBox="0 0 18 18" fill="none" xmlns="http://www.w3.org/2000/svg">
<path d="M0 2.25C0 1.00704 1.00704 0 2.25 0H10.5C11.743 0 12.75 1.00704 12.75 2.25V6.75C12.75 7.16421 12.4142 7.5 12 7.5C11.5858 7.5 11.25 7.16421 11.25 6.75V2.25C11.25 1.83546 10.9145 1.5 10.5 1.5H2.25C1.83546 1.5 1.5 1.83546 1.5 2.25V15.75C1.5 16.1645 1.83546 16.5 2.25 16.5H10.5C10.9145 16.5 11.25 16.1645 11.25 15.75V11.25C11.25 10.8358 11.5858 10.5 12 10.5C12.4142 10.5 12.75 10.8358 12.75 11.25V15.75C12.75 16.993 11.743 18 10.5 18H2.25C1.00704 18 0 16.993 0 15.75V2.25Z" fill="black"/>
<path d="M4.5 9C4.5 8.58579 4.83579 8.25 5.25 8.25H15.4393L14.4697 7.28033C14.1768 6.98744 14.1768 6.51257 14.4697 6.21967C14.7626 5.92678 15.2374 5.92678 15.5303 6.21967L17.7803 8.46968C18.0732 8.76257 18.0732 9.23744 17.7803 9.53034L15.5303 11.7803C15.2374 12.0732 14.7626 12.0732 14.4697 11.7803C14.1768 11.4874 14.1768 11.0126 14.4697 10.7197L15.4393 9.75H5.25C4.83579 9.75 4.5 9.41422 4.5 9Z" fill="black"/>
</svg>
