<svg width="20" height="16" viewBox="0 0 20 16" fill="none" xmlns="http://www.w3.org/2000/svg">
<path d="M15.1351 3.69223C14.4145 2.10094 12.8371 0.939883 10.6619 1.13255C7.37529 -1.37142 2.72596 0.49402 1.83225 4.59535C0.124373 5.82887 -0.31089 7.6729 0.20217 9.24827C0.729425 10.8672 2.2562 12.1767 4.25023 12.1767H6.76352C7.17773 12.1767 7.51352 11.8409 7.51352 11.4267C7.51352 11.0125 7.17773 10.6767 6.76352 10.6767H4.25023C2.95767 10.6767 1.97116 9.83611 1.62844 8.78377C1.29815 7.76961 1.56184 6.53149 2.91203 5.67497C3.09248 5.5605 3.21553 5.37449 3.25028 5.16364C3.80738 1.78417 7.52923 0.418114 9.94976 2.48466C10.1147 2.62548 10.3325 2.688 10.547 2.65611C12.3361 2.39011 13.4943 3.36642 13.9105 4.68156C14.0162 5.01569 14.3393 5.23204 14.6885 5.20261C16.6133 5.04044 17.9999 6.43431 17.9999 7.90841C17.9999 9.33914 16.7061 10.6116 15.0767 10.6116H12.0479C11.6337 10.6116 11.2979 10.9474 11.2979 11.3616C11.2979 11.7758 11.6337 12.1116 12.0479 12.1116H15.0767C17.4426 12.1116 19.4999 10.2566 19.4999 7.90841C19.4999 5.6469 17.5832 3.76573 15.1351 3.69223Z" fill="black"/>
<path d="M9.40067 5.44165C9.60964 5.44022 9.80972 5.52604 9.95271 5.67843L12.3371 8.21945C12.6205 8.5215 12.6054 8.99614 12.3034 9.27957C12.0013 9.563 11.5267 9.54791 11.2432 9.24585L10.1552 8.08632V15.1828C10.1552 15.597 9.8194 15.9328 9.40518 15.9328C8.99097 15.9328 8.65518 15.597 8.65518 15.1828V8.12611L7.63972 9.23834C7.36044 9.54423 6.88606 9.56581 6.58016 9.28653C6.27426 9.00724 6.25269 8.53286 6.53197 8.22696L8.85191 5.68594C8.99281 5.53161 9.19171 5.44307 9.40067 5.44165Z" fill="black"/>
</svg>
