<svg width="33" height="33" viewBox="0 0 33 33" fill="none" xmlns="http://www.w3.org/2000/svg">
<path d="M0 10.0713C0 7.40914 1.03912 4.90254 2.92764 3.01113C4.81444 1.11973 7.31609 0 9.97295 0H33V5.15657H10.3125C9.01123 5.15657 7.63359 5.77168 6.70312 6.70312C5.7718 7.63716 5.15625 9.00865 5.15625 10.3125V18.5625C5.15625 20.625 3.09925 22.6855 0.896833 23.0225L0 23.1599V10.0713Z" fill="black"/>
<path d="M33 22.9287C33 25.5909 31.9609 28.0975 30.0724 29.9889C28.1856 31.8803 25.6839 33 23.0271 33L3.8147e-06 33L4.2655e-06 27.8434L22.6875 27.8434C23.9888 27.8434 25.3664 27.2283 26.2969 26.2969C27.2282 25.3628 27.8438 23.9913 27.8438 22.6875V14.4375C27.8438 12.375 29.9008 10.3145 32.1032 9.9775L33 9.84012L33 22.9287Z" fill="black"/>
<path d="M19.5017 16.3946V23.05H23.4777V9.95H19.7102L16.4998 14.1622L13.2894 9.95H9.52344V23.05H13.4987V16.3946L16.4998 20.037L19.5017 16.3946Z" fill="black"/>
</svg>
