<svg width="10" height="10" viewBox="0 0 10 10" fill="none" xmlns="http://www.w3.org/2000/svg">
<path fill-rule="evenodd" clip-rule="evenodd" d="M3.96384 0C1.77467 0 0 1.77467 0 3.96384C0 6.15301 1.77467 7.92767 3.96384 7.92767C4.79551 7.92767 5.56736 7.67154 6.20481 7.23386L8.32032 9.16786C8.56489 9.39145 8.94441 9.37444 9.168 9.12987C9.39159 8.88529 9.37457 8.50578 9.13 8.28219L7.08267 6.41052C7.61199 5.73672 7.92767 4.88715 7.92767 3.96384C7.92767 1.77467 6.15301 0 3.96384 0ZM1.2 3.96384C1.2 2.43741 2.43741 1.2 3.96384 1.2C5.49027 1.2 6.72767 2.43741 6.72767 3.96384C6.72767 5.49027 5.49027 6.72767 3.96384 6.72767C2.43741 6.72767 1.2 5.49027 1.2 3.96384Z" fill="black"/>
</svg>
